<?xml version="1.0" encoding="UTF-8" standalone="no"?>
<svg
   xmlns:dc="http://purl.org/dc/elements/1.1/"
   xmlns:cc="http://creativecommons.org/ns#"
   xmlns:rdf="http://www.w3.org/1999/02/22-rdf-syntax-ns#"
   xmlns:svg="http://www.w3.org/2000/svg"
   xmlns="http://www.w3.org/2000/svg"
   xmlns:sodipodi="http://sodipodi.sourceforge.net/DTD/sodipodi-0.dtd"
   xmlns:inkscape="http://www.inkscape.org/namespaces/inkscape"
   viewBox="0 0 16 16"
   version="1.1"
   id="svg845"
   sodipodi:docname="ext-download.svg"
   inkscape:version="1.0.2 (e86c8708, 2021-01-15)">
  <metadata
     id="metadata851">
    <rdf:RDF>
      <cc:Work
         rdf:about="">
        <dc:format>image/svg+xml</dc:format>
        <dc:type
           rdf:resource="http://purl.org/dc/dcmitype/StillImage" />
        <dc:title></dc:title>
      </cc:Work>
    </rdf:RDF>
  </metadata>
  <defs
     id="defs849" />
  <sodipodi:namedview
     pagecolor="#ffffff"
     bordercolor="#666666"
     borderopacity="1"
     objecttolerance="10"
     gridtolerance="10"
     guidetolerance="10"
     inkscape:pageopacity="0"
     inkscape:pageshadow="2"
     inkscape:window-width="1920"
     inkscape:window-height="1035"
     id="namedview847"
     showgrid="false"
     inkscape:zoom="44.5"
     inkscape:cx="6.6845156"
     inkscape:cy="9.0156516"
     inkscape:window-x="0"
     inkscape:window-y="23"
     inkscape:window-maximized="0"
     inkscape:current-layer="svg845"
     inkscape:document-rotation="0"
     inkscape:snap-grids="false" />
  <g
     id="g839">
    <path
       fill="#0E85CD"
       d="M2 0v16h12V4l-4-4H2z"
       id="path833" />
    <path
       fill="#FFF"
       d="M10 4V0l4 4h-4z"
       opacity=".65"
       id="path835" />
    <path
       fill="#212121"
       d="M14 4v5l-4-5h4z"
       opacity=".15"
       id="path837" />
  </g>
  <g
     class="icon-color"
     id="g851"
     transform="matrix(0.78170144,0,0,0.6928839,1.6331066,0.52664923)"
     style="fill:#ffffff">
    <path
       id="path847"
       style="fill:#ffffff;stroke-width:0.735954"
       transform="matrix(1.2792608,0,0,1.4432432,1.3605228,0.99126841)"
       d="M 2.6347656,3.4707031 A 0.19542536,0.17322097 0 0 0 2.4863281,3.7578125 l 2.5566407,2.59375 a 0.19073515,0.16906367 0 0 0 0.2949218,0 l 2.5566406,-2.59375 A 0.19542536,0.17322097 0 0 0 7.7460938,3.4707031 Z" />
    <path
       d="M 7,2 H 9 V 6 H 7 Z"
       id="path849"
       style="fill:#ffffff" />
  </g>
  <g
     class="icon-color"
     id="g2630"
     transform="matrix(-0.59491518,0,0,-0.52076361,12.575414,15.553027)"
     style="fill:#ffffff">
    <path
       d="M 8,1 C 4.1,1 1,4.1 1,8 c 0,3.9 3.1,7 7,7 3.9,0 7,-3.1 7,-7 C 15,4.1 11.9,1 8,1 Z m 5.2,4 H 10.7 C 10.5,3.9 10.1,2.9 9.7,2.3 11.2,2.7 12.4,3.7 13.2,5 Z M 10,8 C 10,8.7 9.9,9.4 9.9,10 H 6.1 C 6.1,9.4 6,8.7 6,8 6,7.3 6.1,6.6 6.1,6 H 9.8 C 9.9,6.6 10,7.3 10,8 Z M 8,14 C 7.5,14 6.8,12.9 6.3,11 H 9.6 C 9.2,12.9 8.5,14 8,14 Z M 6.3,5 C 6.8,3.1 7.5,2 8,2 8.5,2 9.2,3.1 9.7,5 Z m 0,-2.7 C 5.9,2.9 5.5,3.9 5.3,5 H 2.8 C 3.6,3.7 4.8,2.7 6.3,2.3 Z M 2.4,6 H 5.2 C 5,6.6 5,7.3 5,8 5,8.7 5,9.4 5.1,10 H 2.4 C 2.1,9.4 2,8.7 2,8 2,7.3 2.1,6.6 2.4,6 Z m 0.4,5 h 2.5 c 0.2,1.1 0.6,2.1 1,2.7 C 4.8,13.3 3.6,12.3 2.8,11 Z m 6.9,2.7 c 0.4,-0.7 0.8,-1.6 1,-2.7 h 2.5 c -0.8,1.3 -2,2.3 -3.5,2.7 z M 13.6,10 H 10.8 C 11,9.4 11,8.7 11,8 11,7.3 11,6.6 10.9,6 h 2.8 c 0.2,0.6 0.3,1.3 0.3,2 0,0.7 -0.1,1.4 -0.4,2 z"
       id="path2628"
       style="fill:#ffffff" />
  </g>
</svg>
