<?xml version="1.0" encoding="UTF-8" standalone="no"?>
<svg
   xmlns:dc="http://purl.org/dc/elements/1.1/"
   xmlns:cc="http://creativecommons.org/ns#"
   xmlns:rdf="http://www.w3.org/1999/02/22-rdf-syntax-ns#"
   xmlns:svg="http://www.w3.org/2000/svg"
   xmlns="http://www.w3.org/2000/svg"
   xmlns:sodipodi="http://sodipodi.sourceforge.net/DTD/sodipodi-0.dtd"
   xmlns:inkscape="http://www.inkscape.org/namespaces/inkscape"
   viewBox="0 0 16 16"
   version="1.1"
   id="svg869"
   sodipodi:docname="Extension.svg"
   inkscape:version="1.0.2 (e86c8708, 2021-01-15)">
  <metadata
     id="metadata875">
    <rdf:RDF>
      <cc:Work
         rdf:about="">
        <dc:format>image/svg+xml</dc:format>
        <dc:type
           rdf:resource="http://purl.org/dc/dcmitype/StillImage" />
      </cc:Work>
    </rdf:RDF>
  </metadata>
  <defs
     id="defs873" />
  <sodipodi:namedview
     pagecolor="#ffffff"
     bordercolor="#666666"
     borderopacity="1"
     objecttolerance="10"
     gridtolerance="10"
     guidetolerance="10"
     inkscape:pageopacity="0"
     inkscape:pageshadow="2"
     inkscape:window-width="1920"
     inkscape:window-height="1035"
     id="namedview871"
     showgrid="false"
     inkscape:zoom="45.9375"
     inkscape:cx="7.3533378"
     inkscape:cy="8.8333182"
     inkscape:window-x="1920"
     inkscape:window-y="23"
     inkscape:window-maximized="0"
     inkscape:current-layer="g865"
     inkscape:document-rotation="0" />
  <path
     fill="#888"
     d="M0 2v12h12.69V3.81H5.08L3.95 2H0z"
     id="path853" />
  <g
     id="g865">
    <rect
       style="fill:#0e85cd;paint-order:stroke fill markers;fill-opacity:1"
       id="rect1484"
       width="11.210884"
       height="10.579592"
       x="2.0680273"
       y="0.78367347" />
    <g
       class="icon-color"
       id="g851"
       transform="matrix(0.54069075,0,0,0.56045759,3.3697121,-0.22787839)"
       style="fill:#ffffff">
      <path
         d="M 14.5,9 H 10.527 L 9.653,10 H 14 v 3 H 2 V 10 H 6.346 L 5.473,9 H 1.5 A 0.5,0.5 0 0 0 1,9.5 v 4 A 0.5,0.5 0 0 0 1.5,14 h 13 A 0.5,0.5 0 0 0 15,13.5 v -4 A 0.5,0.5 0 0 0 14.5,9 Z"
         id="path845"
         style="fill:#ffffff" />
      <path
         d="m 10,11 h 1 v 1 h -1 z m 2,0 h 1 v 1 H 12 Z M 11.27,6 H 4.73 A 0.25,0.25 0 0 0 4.542,6.414 l 3.27,3.743 a 0.244,0.244 0 0 0 0.377,0 l 3.27,-3.743 A 0.25,0.25 0 0 0 11.27,6 Z"
         id="path847"
         style="fill:#ffffff" />
      <path
         d="M 7,2 H 9 V 6 H 7 Z"
         id="path849"
         style="fill:#ffffff" />
    </g>
  </g>
  <path
     fill="#AAA"
     d="M8.26 6.08L6.55 7.4H2.53L0 14h12.96L16 6.08H8.26z"
     id="path867" />
</svg>
