<?xml version="1.0" encoding="UTF-8" standalone="no"?>
<svg
   xmlns:dc="http://purl.org/dc/elements/1.1/"
   xmlns:cc="http://creativecommons.org/ns#"
   xmlns:rdf="http://www.w3.org/1999/02/22-rdf-syntax-ns#"
   xmlns:svg="http://www.w3.org/2000/svg"
   xmlns="http://www.w3.org/2000/svg"
   xmlns:sodipodi="http://sodipodi.sourceforge.net/DTD/sodipodi-0.dtd"
   xmlns:inkscape="http://www.inkscape.org/namespaces/inkscape"
   viewBox="0 0 16 16"
   version="1.1"
   id="svg845"
   sodipodi:docname="download.svg"
   inkscape:version="1.0.2 (e86c8708, 2021-01-15)">
  <metadata
     id="metadata851">
    <rdf:RDF>
      <cc:Work
         rdf:about="">
        <dc:format>image/svg+xml</dc:format>
        <dc:type
           rdf:resource="http://purl.org/dc/dcmitype/StillImage" />
        <dc:title />
      </cc:Work>
    </rdf:RDF>
  </metadata>
  <defs
     id="defs849" />
  <sodipodi:namedview
     pagecolor="#ffffff"
     bordercolor="#666666"
     borderopacity="1"
     objecttolerance="10"
     gridtolerance="10"
     guidetolerance="10"
     inkscape:pageopacity="0"
     inkscape:pageshadow="2"
     inkscape:window-width="1920"
     inkscape:window-height="1035"
     id="namedview847"
     showgrid="false"
     inkscape:zoom="44.5"
     inkscape:cx="6.0103583"
     inkscape:cy="6.5886853"
     inkscape:window-x="0"
     inkscape:window-y="23"
     inkscape:window-maximized="0"
     inkscape:current-layer="svg845"
     inkscape:document-rotation="0"
     inkscape:snap-grids="false" />
  <g
     id="g839">
    <path
       fill="#0E85CD"
       d="M2 0v16h12V4l-4-4H2z"
       id="path833" />
    <path
       fill="#FFF"
       d="M10 4V0l4 4h-4z"
       opacity=".65"
       id="path835" />
    <path
       fill="#212121"
       d="M14 4v5l-4-5h4z"
       opacity=".15"
       id="path837" />
  </g>
  <g
     class="icon-color"
     id="g851"
     transform="matrix(0.78170144,0,0,0.6928839,1.8138041,2.8614232)"
     style="fill:#ffffff">
    <path
       d="M 14.5,9 H 10.527 L 9.653,10 H 14 v 3 H 2 V 10 H 6.346 L 5.473,9 H 1.5 A 0.5,0.5 0 0 0 1,9.5 v 4 A 0.5,0.5 0 0 0 1.5,14 h 13 A 0.5,0.5 0 0 0 15,13.5 v -4 A 0.5,0.5 0 0 0 14.5,9 Z"
       id="path845"
       style="fill:#ffffff" />
    <path
       d="m 10,11 h 1 v 1 h -1 z m 2,0 h 1 v 1 H 12 Z M 11.27,6 H 4.73 A 0.25,0.25 0 0 0 4.542,6.414 l 3.27,3.743 a 0.244,0.244 0 0 0 0.377,0 l 3.27,-3.743 A 0.25,0.25 0 0 0 11.27,6 Z"
       id="path847"
       style="fill:#ffffff" />
    <path
       d="M 7,2 H 9 V 6 H 7 Z"
       id="path849"
       style="fill:#ffffff" />
  </g>
</svg>
