<?xml version="1.0" encoding="UTF-8" standalone="no"?>
<svg
   xmlns:dc="http://purl.org/dc/elements/1.1/"
   xmlns:cc="http://creativecommons.org/ns#"
   xmlns:rdf="http://www.w3.org/1999/02/22-rdf-syntax-ns#"
   xmlns:svg="http://www.w3.org/2000/svg"
   xmlns="http://www.w3.org/2000/svg"
   xmlns:sodipodi="http://sodipodi.sourceforge.net/DTD/sodipodi-0.dtd"
   xmlns:inkscape="http://www.inkscape.org/namespaces/inkscape"
   viewBox="0 0 16 16"
   version="1.1"
   id="svg845"
   sodipodi:docname="link-download.svg"
   inkscape:version="1.0.2 (e86c8708, 2021-01-15)">
  <metadata
     id="metadata851">
    <rdf:RDF>
      <cc:Work
         rdf:about="">
        <dc:format>image/svg+xml</dc:format>
        <dc:type
           rdf:resource="http://purl.org/dc/dcmitype/StillImage" />
        <dc:title></dc:title>
      </cc:Work>
    </rdf:RDF>
  </metadata>
  <defs
     id="defs849" />
  <sodipodi:namedview
     pagecolor="#ffffff"
     bordercolor="#666666"
     borderopacity="1"
     objecttolerance="10"
     gridtolerance="10"
     guidetolerance="10"
     inkscape:pageopacity="0"
     inkscape:pageshadow="2"
     inkscape:window-width="1920"
     inkscape:window-height="1035"
     id="namedview847"
     showgrid="false"
     inkscape:zoom="44.5"
     inkscape:cx="6.6845156"
     inkscape:cy="9.0156516"
     inkscape:window-x="0"
     inkscape:window-y="23"
     inkscape:window-maximized="0"
     inkscape:current-layer="svg845"
     inkscape:document-rotation="0"
     inkscape:snap-grids="false" />
  <g
     id="g839">
    <path
       fill="#0E85CD"
       d="M2 0v16h12V4l-4-4H2z"
       id="path833" />
    <path
       fill="#FFF"
       d="M10 4V0l4 4h-4z"
       opacity=".65"
       id="path835" />
    <path
       fill="#212121"
       d="M14 4v5l-4-5h4z"
       opacity=".15"
       id="path837" />
  </g>
  <g
     class="icon-color"
     id="g851"
     transform="matrix(0.78170144,0,0,0.6928839,1.6331066,0.52664923)"
     style="fill:#ffffff">
    <path
       id="path847"
       style="fill:#ffffff;stroke-width:0.735954"
       transform="matrix(1.2792608,0,0,1.4432432,1.3605228,0.99126841)"
       d="M 2.6347656,3.4707031 A 0.19542536,0.17322097 0 0 0 2.4863281,3.7578125 l 2.5566407,2.59375 a 0.19073515,0.16906367 0 0 0 0.2949218,0 l 2.5566406,-2.59375 A 0.19542536,0.17322097 0 0 0 7.7460938,3.4707031 Z" />
    <path
       d="M 7,2 H 9 V 6 H 7 Z"
       id="path849"
       style="fill:#ffffff" />
  </g>
  <g
     class="icon-color"
     id="g3280"
     transform="matrix(0.74881697,0,0,0.70822762,2.3970954,5.4465386)"
     style="fill:#ffffff">
    <path
       d="M 13.7,3.8 12.3,2.4 c -0.8,-0.8 -2,-0.8 -2.8,0 L 5.9,5.9 c -0.8,0.8 -0.8,2 0,2.8 L 7.1,9.9 8,9.1 6.9,8 C 6.5,7.6 6.5,7 6.9,6.6 l 3.2,-3.2 c 0.4,-0.4 1,-0.4 1.4,0 l 1.1,1.1 c 0.4,0.4 0.4,1 0,1.4 l -1.3,1.3 c 0.2,0.4 0.4,0.9 0.4,1.4 l 2,-2 c 0.7,-0.8 0.7,-2.1 0,-2.8 z"
       id="path3276"
       style="fill:#ffffff" />
    <path
       d="M 8.9,6.1 8,6.9 9.1,8 c 0.4,0.4 0.4,1 0,1.4 L 5.9,12.6 C 5.5,13 4.9,13 4.5,12.6 L 3.4,11.5 C 3,11.1 3,10.5 3.4,10.1 L 4.7,8.8 C 4.5,8.4 4.3,7.9 4.3,7.4 l -2,2 c -0.8,0.8 -0.8,2 0,2.8 l 1.4,1.4 c 0.8,0.8 2,0.8 2.8,0 L 10,10.1 c 0.8,-0.8 0.8,-2 0,-2.8 z"
       id="path3278"
       style="fill:#ffffff" />
  </g>
</svg>
